<svg xmlns="http://www.w3.org/2000/svg" width="62" height="48" fill="none" viewBox="0 0 62 48"><path fill="#2891F9" d="M0 5.97594L31 23.9038V35.8557L10.3333 23.9038V47.8077L0 41.8317V5.97594Z"/><path fill="#2BBDF7" d="M10.3333 47.8077V23.9039L20.6666 29.8798V41.8317L10.3333 47.8077Z"/><path fill="#2B6DEF" d="M0 5.97596L10.3333 0L41.3333 17.9279L31 23.9039L0 5.97596Z"/><path fill="#2BBDF7" d="M30.9999 23.9039L41.3333 17.9279V29.8798L30.9999 35.8558V23.9039Z"/><path fill="#2891F9" d="M41.3334 5.97594V41.8317L51.6667 47.8077V11.9519L41.3334 5.97594Z"/><path fill="#2BBDF7" d="M61.9999 5.97594L51.6666 11.9519V47.8077L61.9999 41.8317V5.97594Z"/><path fill="#2B6DEF" d="M51.6667 0L62 5.97596L51.6667 11.9519L41.3334 5.97596L51.6667 0Z"/></svg>