<svg xmlns="http://www.w3.org/2000/svg" width="417" height="636" fill="none" viewBox="0 0 417 636"><path stroke="#E7E9EE" stroke-miterlimit="10" d="M729.8 -3.02419L1 415"/><path stroke="#E7E9EE" stroke-miterlimit="10" d="M300.4 -38.601L361.642 -3.02415V209.375L300.4 173.975V-38.601Z"/><path fill="#E7E9EE" stroke="#E7E9EE" stroke-miterlimit="10" d="M423.06 -38.601L361.642 -3.20116V209.375L423.06 173.975V-38.601Z"/><path stroke="#E7E9EE" stroke-miterlimit="10" d="M423.06 173.975L361.642 209.375V634.527L423.06 599.127V173.975Z"/><path stroke="#E7E9EE" stroke-miterlimit="10" d="M300.4 -38.601L238.981 -3.02415V209.375L300.4 173.975V-38.601Z"/><path stroke="#E7E9EE" stroke-miterlimit="10" d="M300.4 173.975L238.981 209.375V492.751L300.4 457.351V173.975Z"/><path stroke="#E7E9EE" stroke-miterlimit="10" d="M545.721 -180.2L177.74 32.3757"/><path stroke="#E7E9EE" stroke-miterlimit="10" d="M238.981 -3.02419V209.375L177.74 244.775V32.3757L238.981 -3.02419Z"/><path stroke="#E7E9EE" stroke-miterlimit="10" d="M116.321 209.375L177.74 244.775V528.327L116.321 492.751V209.375Z"/><path fill="url(#paint0_linear)" d="M300.4 173.975L361.642 209.375V563.727L300.4 528.327V173.975Z"/><path stroke="#E7E9EE" stroke-miterlimit="10" d="M729.8 209.375L361.642 421.951"/><defs><linearGradient id="paint0_linear" x1="331.021" x2="331.021" y1="173.975" y2="530" gradientUnits="userSpaceOnUse"><stop stop-color="#D5E2FC"/><stop offset="1" stop-color="#D5E2FC" stop-opacity="0"/></linearGradient></defs></svg>